# xmcd CD database file
#
# Track frame offsets:
#	150
#	19294
#	35699
#	53831
#	71584
#	89164
#	108756
#	132361
#	157675
#	173712
#	197896
#	213010
#	232847
#	251641
#
# Disc length: 3623 seconds
#
# Revision: 0
# Processed by: cddbd v1.5.2PL0 Copyright (c) Steve Scherf et al.
# Submitted via: CDex 1.70beta2
#
DISCID=b90e250e
DTITLE=Quincy Jones - Somethin' Special - The Collection
DYEAR=2006
DGENRE=Country
TTITLE0=Ai No Corrida
TTITLE1=Oh Happy Day
TTITLE2=Velas
TTITLE3=Body Heat
TTITLE4=Somethin' Special
TTITLE5=Turn On The Action
TTITLE6=Love, I Never Had It So Good
TTITLE7=The Dude
TTITLE8=I'm Gonna Miss You In The Morning
TTITLE9=My Cherie Amour
TTITLE10=Smackwater Jack
TTITLE11=Cry Baby
TTITLE12=There's A Train Leaving
TTITLE13=Cast Your Eye To Fate
EXTD=YEAR: 2006
EXTT0=
EXTT1=
EXTT2=
EXTT3=
EXTT4=
EXTT5=
EXTT6=
EXTT7=
EXTT8=
EXTT9=
EXTT10=
EXTT11=
EXTT12=
EXTT13=
PLAYORDER=
